<svg width="112.273" height="21" viewBox="0 0 112.273 21" xmlns="http://www.w3.org/2000/svg"><path d="M8.682 10.87V6.98h.85c1.17 0 1.81.75 1.81 1.95 0 1.19-.64 1.94-1.81 1.94zM7.412 12h2.17c1.86 0 3.03-1.2 3.03-3.07 0-1.87-1.17-3.07-3.03-3.07h-2.17zm7.28-4.47h-1.24V12h1.24zm.11-1.29c0-.41-.34-.71-.73-.71-.4 0-.74.3-.74.71 0 .42.34.71.74.71.39 0 .73-.29.73-.71zm.78 5.41c.38.29.99.45 1.58.45 1.05 0 1.84-.48 1.84-1.38 0-.72-.39-1.12-1.24-1.36l-.5-.15c-.31-.1-.48-.18-.48-.42 0-.25.26-.38.6-.38.51 0 .97.23 1.37.55V7.83c-.4-.26-.86-.4-1.43-.4-1 0-1.75.53-1.75 1.4 0 .77.49 1.14 1.27 1.35l.43.12c.31.1.51.19.51.44 0 .27-.29.38-.66.38-.49 0-1.11-.23-1.54-.62zm3.98-1.88c0 1.43.99 2.33 2.26 2.33.45 0 .89-.1 1.21-.35v-1.12c-.3.26-.66.4-1.06.4-.66 0-1.18-.47-1.18-1.26 0-.8.52-1.26 1.18-1.26.4 0 .76.13 1.06.4V7.78c-.32-.25-.76-.35-1.21-.35-1.27 0-2.26.9-2.26 2.34zm8.43 0c0-1.38-.89-2.34-2.19-2.34-1.3 0-2.19.96-2.19 2.34 0 1.37.89 2.33 2.19 2.33 1.3 0 2.19-.96 2.19-2.33zm-1.23 0c0 .74-.34 1.28-.96 1.28-.62 0-.96-.54-.96-1.28 0-.75.34-1.29.96-1.29.62 0 .96.54.96 1.29zm4.36 2.23l1.7-4.47h-1.25l-1.01 2.97-1.03-2.97h-1.3l1.69 4.47zm6.02-1.95v-.4c0-1.32-.67-2.22-1.97-2.22-1.22 0-2.1.97-2.1 2.37 0 1.42.93 2.3 2.29 2.3.6 0 1.1-.12 1.47-.39v-1.02c-.44.28-.79.39-1.28.39-.66 0-1.19-.3-1.29-1.03zm-1.94-1.63c.49 0 .76.34.79.82h-1.69c.14-.56.49-.82.9-.82zm5.46-.91c-.07-.04-.26-.08-.47-.08-.44 0-.81.22-1 .54v-.44h-1.24V12h1.24V9.23c.09-.41.43-.63.85-.63.23 0 .45.05.62.15zm4.68 1.02h.95v-1h-.95V6.32h-1.24v1.21h-.85v1h.85V12h1.24zm1.7 3.47h1.24V9.17c.1-.39.43-.62.81-.62.49 0 .73.32.73.79V12h1.24V9.08c0-.99-.57-1.65-1.58-1.65-.52 0-.96.23-1.2.51V5.5h-1.24zm8.84-1.95v-.4c0-1.32-.67-2.22-1.97-2.22-1.22 0-2.1.97-2.1 2.37 0 1.42.93 2.3 2.29 2.3.6 0 1.1-.12 1.47-.39v-1.02c-.44.28-.79.39-1.28.39-.66 0-1.19-.3-1.29-1.03zm-1.94-1.63c.49 0 .76.34.79.82h-1.69c.14-.56.49-.82.9-.82zm6.11 3.21c.2.24.64.47 1.12.47 1.3 0 2.04-1.07 2.04-2.33s-.74-2.34-2.04-2.34c-.48 0-.92.23-1.12.47v-.37h-1.24v6.12h1.24zm0-2.6c.15-.3.47-.52.84-.52.67 0 1.07.54 1.07 1.26 0 .71-.4 1.25-1.07 1.25a.94.94 0 0 1-.84-.52zm8.09.74c0-1.38-.89-2.34-2.19-2.34-1.3 0-2.19.96-2.19 2.34 0 1.37.89 2.33 2.19 2.33 1.3 0 2.19-.96 2.19-2.33zm-1.23 0c0 .74-.34 1.28-.96 1.28-.62 0-.96-.54-.96-1.28 0-.75.34-1.29.96-1.29.62 0 .96.54.96 1.29zm1.84 1.88c.38.29.99.45 1.58.45 1.05 0 1.84-.48 1.84-1.38 0-.72-.39-1.12-1.24-1.36l-.5-.15c-.31-.1-.48-.18-.48-.42 0-.25.26-.38.6-.38.51 0 .97.23 1.37.55V7.83c-.4-.26-.86-.4-1.43-.4-1 0-1.75.53-1.75 1.4 0 .77.49 1.14 1.27 1.35l.43.12c.31.1.51.19.51.44 0 .27-.29.38-.66.38-.49 0-1.11-.23-1.54-.62zm4.06 0c.38.29.99.45 1.58.45 1.05 0 1.84-.48 1.84-1.38 0-.72-.39-1.12-1.24-1.36l-.5-.15c-.31-.1-.48-.18-.48-.42 0-.25.26-.38.6-.38.51 0 .97.23 1.37.55V7.83c-.4-.26-.86-.4-1.43-.4-1 0-1.75.53-1.75 1.4 0 .77.49 1.14 1.27 1.35l.43.12c.31.1.51.19.51.44 0 .27-.29.38-.66.38-.49 0-1.11-.23-1.54-.62zm5.49-4.12h-1.24V12h1.24zm.11-1.29c0-.41-.34-.71-.73-.71-.4 0-.74.3-.74.71 0 .42.34.71.74.71.39 0 .73-.29.73-.71zm2.21 5.39c.2.24.64.47 1.12.47 1.3 0 2.03-1.05 2.03-2.33s-.73-2.34-2.03-2.34c-.48 0-.92.23-1.12.47V5.5h-1.25V12h1.25zm0-2.6c.14-.3.48-.52.84-.52.67 0 1.07.54 1.07 1.26 0 .71-.4 1.25-1.07 1.25-.37 0-.7-.21-.84-.52zm5.19-1.5h-1.24V12h1.24zm.11-1.29c0-.41-.34-.71-.73-.71-.4 0-.74.3-.74.71 0 .42.34.71.74.71.39 0 .73-.29.73-.71zm2.21-.74h-1.24V12h1.24zm2.32 2.03h-1.24V12h1.24zm.11-1.29c0-.41-.34-.71-.73-.71-.4 0-.74.3-.74.71 0 .42.34.71.74.71.39 0 .73-.29.73-.71zm2.73 2.29h.95v-1h-.95V6.32h-1.24v1.21h-.85v1h.85V12h1.24zm2.94-1h-1.24V12h1.24zm.11-1.29c0-.41-.34-.71-.73-.71-.4 0-.74.3-.74.71 0 .42.34.71.74.71.39 0 .73-.29.73-.71zm4.76 3.81v-.4c0-1.32-.67-2.22-1.97-2.22-1.22 0-2.1.97-2.1 2.37 0 1.42.93 2.3 2.29 2.3.6 0 1.1-.12 1.47-.39v-1.02c-.44.28-.79.39-1.28.39-.66 0-1.19-.3-1.29-1.03zm-1.94-1.63c.49 0 .76.34.79.82h-1.69c.14-.56.49-.82.9-.82zm2.58 3.23c.38.29.99.45 1.58.45 1.05 0 1.84-.48 1.84-1.38 0-.72-.39-1.12-1.24-1.36l-.5-.15c-.31-.1-.48-.18-.48-.42 0-.25.26-.38.6-.38.51 0 .97.23 1.37.55V7.83c-.4-.26-.86-.4-1.43-.4-1 0-1.75.53-1.75 1.4 0 .77.49 1.14 1.27 1.35l.43.12c.31.1.51.19.51.44 0 .27-.29.38-.66.38-.49 0-1.11-.23-1.54-.62z" fill="#fff"/></svg>