<svg width="344.333" height="66" viewBox="0 0 344.333 66" xmlns="http://www.w3.org/2000/svg"><path d="M70.009 25.382l2.912-4.69V27.3h1.078v-8.596h-.966l-3.038 4.942-3.052-4.942H65.92V27.3h1.078v-6.608l2.954 4.69zm11.214-1.19c0-1.904-1.162-3.234-2.856-3.234-1.708 0-2.856 1.33-2.856 3.234s1.148 3.234 2.856 3.234c1.694 0 2.856-1.33 2.856-3.234zm-1.064 0c0 1.358-.672 2.31-1.792 2.31s-1.792-.952-1.792-2.31.672-2.31 1.792-2.31 1.792.952 1.792 2.31zM86.78 27.3h1.064v-9.1H86.78v3.612c-.308-.448-.98-.854-1.75-.854-1.82 0-2.8 1.484-2.8 3.234 0 1.764.98 3.234 2.8 3.234.77 0 1.442-.406 1.75-.854zm0-1.848c-.322.644-.938 1.022-1.596 1.022-1.19 0-1.89-.966-1.89-2.282s.7-2.282 1.89-2.282c.658 0 1.274.378 1.596 1.022zm7.798-1.078v-.378c0-1.82-.868-3.038-2.548-3.038-1.652 0-2.772 1.358-2.772 3.29 0 1.96 1.204 3.178 2.996 3.178.742 0 1.386-.154 1.89-.546v-.966c-.56.42-1.064.588-1.764.588-1.134 0-2.044-.686-2.086-2.128zm-2.534-2.52c1.008 0 1.47.784 1.512 1.694H90.35c.196-1.148.868-1.694 1.694-1.694zm7.154-.798c-.112-.056-.336-.098-.602-.098-.686 0-1.274.406-1.54.938v-.812h-1.05V27.3h1.05v-4.172c.21-.728.784-1.162 1.442-1.162.266 0 .532.056.7.168zM100.5 27.3h1.05v-4.214c.224-.672.854-1.162 1.582-1.162.938 0 1.372.602 1.372 1.47V27.3h1.064v-4.074c0-1.358-.77-2.268-2.184-2.268-.798 0-1.47.42-1.834.91v-.784h-1.05zm7.896-6.216h-1.05V27.3h1.05zm.154-1.876a.675.675 0 0 0-.686-.672.672.672 0 0 0-.672.672c0 .364.308.672.672.672a.684.684 0 0 0 .686-.672zm6.174 7.196h-3.318l3.332-5.264v-.056h-4.816v.896h3.192l-3.346 5.264v.056h4.956zm6.286-2.03v-.378c0-1.82-.868-3.038-2.548-3.038-1.652 0-2.772 1.358-2.772 3.29 0 1.96 1.204 3.178 2.996 3.178.742 0 1.386-.154 1.89-.546v-.966c-.56.42-1.064.588-1.764.588-1.134 0-2.044-.686-2.086-2.128zm-2.534-2.52c1.008 0 1.47.784 1.512 1.694h-3.206c.196-1.148.868-1.694 1.694-1.694zm11.158 5.446h1.064v-9.1h-1.064v3.612c-.308-.448-.98-.854-1.75-.854-1.82 0-2.8 1.484-2.8 3.234 0 1.764.98 3.234 2.8 3.234.77 0 1.442-.406 1.75-.854zm0-1.848c-.322.644-.938 1.022-1.596 1.022-1.19 0-1.89-.966-1.89-2.282s.7-2.282 1.89-2.282c.658 0 1.274.378 1.596 1.022zm6.384-1.47c-.266-.238-.91-.504-1.554-.504-1.33 0-2.366.784-2.366 1.946 0 1.232 1.036 1.988 2.31 1.988.728 0 1.372-.322 1.61-.574v.462h1.022v-4.214c0-1.316-.868-2.128-2.338-2.128-.77 0-1.512.224-1.932.518v.994c.518-.336 1.078-.546 1.764-.546.91 0 1.484.476 1.484 1.246zm0 1.778c-.168.462-.784.77-1.442.77-.756 0-1.484-.35-1.484-1.106 0-.742.728-1.078 1.484-1.078.658 0 1.274.308 1.442.77zm4.508-3.78h1.442v-.896h-1.442v-1.638h-1.05v1.638h-1.302v.896h1.302v5.32h1.05zm6.034 2.002c-.266-.238-.91-.504-1.554-.504-1.33 0-2.366.784-2.366 1.946 0 1.232 1.036 1.988 2.31 1.988.728 0 1.372-.322 1.61-.574v.462h1.022v-4.214c0-1.316-.868-2.128-2.338-2.128-.77 0-1.512.224-1.932.518v.994c.518-.336 1.078-.546 1.764-.546.91 0 1.484.476 1.484 1.246zm0 1.778c-.168.462-.784.77-1.442.77-.756 0-1.484-.35-1.484-1.106 0-.742.728-1.078 1.484-1.078.658 0 1.274.308 1.442.77zm9.016-7.546c-.238-.098-.476-.14-.812-.14-1.092 0-1.904.728-1.904 1.974v1.036h-1.05v.896h1.05v5.32h1.036v-5.32h1.4v-.896h-1.4v-.952c0-.742.406-1.134 1.022-1.134.224 0 .462.042.658.168zm6.104 5.978c0-1.904-1.162-3.234-2.856-3.234-1.708 0-2.856 1.33-2.856 3.234s1.148 3.234 2.856 3.234c1.694 0 2.856-1.33 2.856-3.234zm-1.064 0c0 1.358-.672 2.31-1.792 2.31s-1.792-.952-1.792-2.31.672-2.31 1.792-2.31 1.792.952 1.792 2.31zm7.448-3.108H167v4.214c-.224.672-.826 1.162-1.554 1.162-.938 0-1.358-.602-1.358-1.47v-3.906h-1.064v4.074c0 1.358.756 2.268 2.17 2.268.798 0 1.456-.42 1.806-.91v.784h1.064zm1.862 6.216h1.05v-4.214c.224-.672.854-1.162 1.582-1.162.938 0 1.372.602 1.372 1.47V27.3h1.064v-4.074c0-1.358-.77-2.268-2.184-2.268-.798 0-1.47.42-1.834.91v-.784h-1.05zm10.948 0h1.064v-9.1h-1.064v3.612c-.308-.448-.98-.854-1.75-.854-1.82 0-2.8 1.484-2.8 3.234 0 1.764.98 3.234 2.8 3.234.77 0 1.442-.406 1.75-.854zm0-1.848c-.322.644-.938 1.022-1.596 1.022-1.19 0-1.89-.966-1.89-2.282s.7-2.282 1.89-2.282c.658 0 1.274.378 1.596 1.022zm6.384-1.47c-.266-.238-.91-.504-1.554-.504-1.33 0-2.366.784-2.366 1.946 0 1.232 1.036 1.988 2.31 1.988.728 0 1.372-.322 1.61-.574v.462h1.022v-4.214c0-1.316-.868-2.128-2.338-2.128-.77 0-1.512.224-1.932.518v.994c.518-.336 1.078-.546 1.764-.546.91 0 1.484.476 1.484 1.246zm0 1.778c-.168.462-.784.77-1.442.77-.756 0-1.484-.35-1.484-1.106 0-.742.728-1.078 1.484-1.078.658 0 1.274.308 1.442.77zm4.508-3.78h1.442v-.896h-1.442v-1.638h-1.05v1.638h-1.302v.896h1.302v5.32h1.05zm3.766-.896h-1.05V27.3h1.05zm.154-1.876a.675.675 0 0 0-.686-.672.672.672 0 0 0-.672.672c0 .364.308.672.672.672a.684.684 0 0 0 .686-.672zm6.986 4.984c0-1.904-1.162-3.234-2.856-3.234-1.708 0-2.856 1.33-2.856 3.234s1.148 3.234 2.856 3.234c1.694 0 2.856-1.33 2.856-3.234zm-1.064 0c0 1.358-.672 2.31-1.792 2.31s-1.792-.952-1.792-2.31.672-2.31 1.792-2.31 1.792.952 1.792 2.31zM204.1 27.3h1.05v-4.214c.224-.672.854-1.162 1.582-1.162.938 0 1.372.602 1.372 1.47V27.3h1.064v-4.074c0-1.358-.77-2.268-2.184-2.268-.798 0-1.47.42-1.834.91v-.784h-1.05zm6.482-.49c.462.364 1.232.616 2.044.616 1.302 0 2.324-.658 2.324-1.806 0-.882-.518-1.428-1.456-1.75l-.952-.322c-.588-.21-.924-.378-.924-.882 0-.532.532-.812 1.176-.812.756 0 1.33.308 1.848.742v-1.092c-.504-.35-1.148-.546-1.848-.546-1.232 0-2.198.658-2.198 1.75 0 1.008.63 1.456 1.568 1.764l.854.294c.546.182.896.434.896.896 0 .616-.602.868-1.288.868-.756 0-1.47-.308-2.044-.84zm8.596 0c.462.364 1.232.616 2.044.616 1.302 0 2.324-.658 2.324-1.806 0-.882-.518-1.428-1.456-1.75l-.952-.322c-.588-.21-.924-.378-.924-.882 0-.532.532-.812 1.176-.812.756 0 1.33.308 1.848.742v-1.092c-.504-.35-1.148-.546-1.848-.546-1.232 0-2.198.658-2.198 1.75 0 1.008.63 1.456 1.568 1.764l.854.294c.546.182.896.434.896.896 0 .616-.602.868-1.288.868-.756 0-1.47-.308-2.044-.84zm10.738-2.436v-.378c0-1.82-.868-3.038-2.548-3.038-1.652 0-2.772 1.358-2.772 3.29 0 1.96 1.204 3.178 2.996 3.178.742 0 1.386-.154 1.89-.546v-.966c-.56.42-1.064.588-1.764.588-1.134 0-2.044-.686-2.086-2.128zm-2.534-2.52c1.008 0 1.47.784 1.512 1.694h-3.206c.196-1.148.868-1.694 1.694-1.694zm3.514 2.338c0 1.988 1.316 3.234 2.996 3.234.602 0 1.232-.14 1.666-.518v-1.064c-.448.448-.994.644-1.596.644-1.106 0-2.002-.868-2.002-2.296s.896-2.296 2.002-2.296c.602 0 1.148.196 1.596.644v-1.064c-.434-.378-1.064-.518-1.666-.518-1.68 0-2.996 1.246-2.996 3.234zm11.074-3.108h-1.064v4.214c-.224.672-.826 1.162-1.554 1.162-.938 0-1.358-.602-1.358-1.47v-3.906h-1.064v4.074c0 1.358.756 2.268 2.17 2.268.798 0 1.456-.42 1.806-.91v.784h1.064zm5.054-.028c-.112-.056-.336-.098-.602-.098-.686 0-1.274.406-1.54.938v-.812h-1.05V27.3h1.05v-4.172c.21-.728.784-1.162 1.442-1.162.266 0 .532.056.7.168zm5.992 3.318v-.378c0-1.82-.868-3.038-2.548-3.038-1.652 0-2.772 1.358-2.772 3.29 0 1.96 1.204 3.178 2.996 3.178.742 0 1.386-.154 1.89-.546v-.966c-.56.42-1.064.588-1.764.588-1.134 0-2.044-.686-2.086-2.128zm-2.534-2.52c1.008 0 1.47.784 1.512 1.694h-3.206c.196-1.148.868-1.694 1.694-1.694zm5.012-3.654h-1.05v9.1h1.05zm3.71 11.48l3.346-8.596h-1.092l-1.806 4.9-1.834-4.9h-1.134l2.422 6.258-.938 2.338zm12.894-5.488c0-1.904-1.162-3.234-2.856-3.234-1.708 0-2.856 1.33-2.856 3.234s1.148 3.234 2.856 3.234c1.694 0 2.856-1.33 2.856-3.234zm-1.064 0c0 1.358-.672 2.31-1.792 2.31s-1.792-.952-1.792-2.31.672-2.31 1.792-2.31 1.792.952 1.792 2.31zm2.492 3.108h1.05v-4.214c.224-.672.854-1.162 1.582-1.162.938 0 1.372.602 1.372 1.47V27.3h1.064v-4.074c0-1.358-.77-2.268-2.184-2.268-.798 0-1.47.42-1.834.91v-.784h-1.05zM75.665 44.1h1.05v-4.214c.224-.672.854-1.162 1.582-1.162.938 0 1.372.602 1.372 1.47V44.1h1.064v-4.074c0-1.358-.77-2.268-2.184-2.268-.798 0-1.47.42-1.834.91v-.784h-1.05zm11.718-2.926v-.378c0-1.82-.868-3.038-2.548-3.038-1.652 0-2.772 1.358-2.772 3.29 0 1.96 1.204 3.178 2.996 3.178.742 0 1.386-.154 1.89-.546v-.966c-.56.42-1.064.588-1.764.588-1.134 0-2.044-.686-2.086-2.128zm-2.534-2.52c1.008 0 1.47.784 1.512 1.694h-3.206c.196-1.148.868-1.694 1.694-1.694zm7.91-.77h-.938l-1.274 4.746-1.372-4.746h-1.05l1.834 6.216h1.022l1.302-4.718L93.57 44.1h1.022l1.834-6.216h-1.022l-1.372 4.746zm14-2.38v3.682H101.9v-3.682h-1.106V44.1h1.106v-3.92h4.858v3.92h1.106v-8.596zm6.328 5.152c1.736 0 2.87-.896 2.87-2.576 0-1.694-1.134-2.576-2.87-2.576h-3.178V44.1h1.106v-3.444zm1.778-2.576c0 .966-.63 1.596-1.792 1.596h-2.058V36.47h2.058c1.162 0 1.792.63 1.792 1.61zm2.562-2.576V44.1h5.474v-.994h-4.382V40.18h3.976v-.98h-3.976v-2.716h4.382v-.98zm13.482 5.152c1.736 0 2.87-.896 2.87-2.576 0-1.694-1.134-2.576-2.87-2.576h-3.178V44.1h1.106v-3.444zm1.778-2.576c0 .966-.63 1.596-1.792 1.596h-2.058V36.47h2.058c1.162 0 1.792.63 1.792 1.61zm5.628-.224c-.112-.056-.336-.098-.602-.098-.686 0-1.274.406-1.54.938v-.812h-1.05V44.1h1.05v-4.172c.21-.728.784-1.162 1.442-1.162.266 0 .532.056.7.168zm6.384 3.136c0-1.904-1.162-3.234-2.856-3.234-1.708 0-2.856 1.33-2.856 3.234s1.148 3.234 2.856 3.234c1.694 0 2.856-1.33 2.856-3.234zm-1.064 0c0 1.358-.672 2.31-1.792 2.31s-1.792-.952-1.792-2.31.672-2.31 1.792-2.31 1.792.952 1.792 2.31zm2.576 3.108h5.488v-.994h-4.382v-7.602h-1.106zm8.022-6.216h-1.05V44.1h1.05zm.154-1.876a.675.675 0 0 0-.686-.672.672.672 0 0 0-.672.672c0 .364.308.672.672.672a.684.684 0 0 0 .686-.672zm5.18 4.774c-.266-.238-.91-.504-1.554-.504-1.33 0-2.366.784-2.366 1.946 0 1.232 1.036 1.988 2.31 1.988.728 0 1.372-.322 1.61-.574v.462h1.022v-4.214c0-1.316-.868-2.128-2.338-2.128-.77 0-1.512.224-1.932.518v.994c.518-.336 1.078-.546 1.764-.546.91 0 1.484.476 1.484 1.246zm0 1.778c-.168.462-.784.77-1.442.77-.756 0-1.484-.35-1.484-1.106 0-.742.728-1.078 1.484-1.078.658 0 1.274.308 1.442.77zm2.814 1.54h1.05v-4.214c.224-.672.854-1.162 1.582-1.162.938 0 1.372.602 1.372 1.47V44.1h1.064v-4.074c0-1.358-.77-2.268-2.184-2.268-.798 0-1.47.42-1.834.91v-.784h-1.05zm8.582-5.32h1.442v-.896h-1.442v-1.638h-1.05v1.638h-1.302v.896h1.302v5.32h1.05zm9.758-.896h-.938l-1.274 4.746-1.372-4.746h-1.05l1.834 6.216h1.022l1.302-4.718 1.288 4.718h1.022l1.834-6.216h-1.022l-1.372 4.746zm5.908 0h-1.05V44.1h1.05zm.154-1.876a.675.675 0 0 0-.686-.672.672.672 0 0 0-.672.672c0 .364.308.672.672.672a.684.684 0 0 0 .686-.672zm3.458 2.772h1.442v-.896h-1.442v-1.638h-1.05v1.638h-1.302v.896h1.302v5.32h1.05zm2.716 5.32h1.05v-4.214c.224-.672.854-1.162 1.582-1.162.938 0 1.372.602 1.372 1.47V44.1h1.064v-4.074c0-1.358-.77-2.268-2.184-2.268-.798 0-1.47.42-1.834.91V35h-1.05zm12.656-8.596l-3.36 8.596h1.12l.98-2.59h3.542l.994 2.59h1.12l-3.36-8.596zm.504 1.372l1.4 3.668h-2.8zm9.296 5.306l2.912-4.69V44.1h1.078v-8.596h-.966l-3.038 4.942-3.052-4.942h-1.022V44.1h1.078v-6.608l2.954 4.69zm7.14.924v-6.622h1.638c1.946 0 3.094 1.302 3.094 3.318s-1.148 3.304-3.094 3.304zm-1.106.994h2.758c2.52 0 4.172-1.68 4.172-4.298 0-2.618-1.652-4.298-4.172-4.298h-2.758zm11.564-8.596V44.1h5.474v-.994h-4.382V40.18h3.976v-.98h-3.976v-2.716h4.382v-.98zm10.388 5.152c1.736 0 2.87-.896 2.87-2.576 0-1.694-1.134-2.576-2.87-2.576h-3.178V44.1h1.106v-3.444zm1.778-2.576c0 .966-.63 1.596-1.792 1.596h-2.058V36.47h2.058c1.162 0 1.792.63 1.792 1.61zm5.362 1.484l-2.478-4.06h-1.204l3.108 5.054V44.1h1.092v-3.542l3.136-5.054h-1.176zm3.962.238c0 2.688 1.736 4.424 4.032 4.424.994 0 1.75-.28 2.31-.742v-1.162c-.7.63-1.414.91-2.296.91-1.736 0-2.94-1.358-2.94-3.43s1.204-3.43 2.94-3.43c.882 0 1.596.266 2.296.91V36.12c-.56-.462-1.316-.742-2.31-.742-2.296 0-4.032 1.736-4.032 4.424zm7.392-3.654h1.148v2.912h.756v-2.912h1.134v-.644h-3.038zm5.39 2.114l.994-1.512v2.31h.728v-3.556h-.672l-1.092 1.666-1.078-1.666h-.686v3.556h.728v-2.31l1.008 1.512z" fill="#fff"/></svg>