<svg width="211" height="90" viewBox="0 0 211 90" xmlns="http://www.w3.org/2000/svg"><path d="M15.32 31.08L8.36 49.5h5.7l.96-2.67h6.48l.96 2.67h5.88l-6.96-18.42zm2.94 6.81l1.53 4.23h-3.06zm9.3 2.4c0 5.76 3.87 9.51 9.78 9.51 1.86 0 3.39-.39 4.56-1.08v-5.49a7.526 7.526 0 0 1-3.96 1.14c-2.82 0-4.56-1.41-4.56-4.08 0-2.7 1.74-4.11 4.56-4.11 1.32 0 2.7.39 3.96 1.17v-5.49c-1.17-.69-2.7-1.08-4.56-1.08-5.91 0-9.78 3.75-9.78 9.51zm15.6 0c0 5.76 3.87 9.51 9.78 9.51 1.86 0 3.39-.39 4.56-1.08v-5.49a7.526 7.526 0 0 1-3.96 1.14c-2.82 0-4.56-1.41-4.56-4.08 0-2.7 1.74-4.11 4.56-4.11 1.32 0 2.7.39 3.96 1.17v-5.49c-1.17-.69-2.7-1.08-4.56-1.08-5.91 0-9.78 3.75-9.78 9.51zm16.17-9.21V49.5h13.86v-4.98h-8.13v-1.95h7.44v-4.8h-7.44v-1.74h8.13v-4.95zM74.99 49.5h13.74v-4.98h-7.92V31.08h-5.82zm15.39-18.42V49.5h13.86v-4.98h-8.13v-1.95h7.44v-4.8h-7.44v-1.74h8.13v-4.95zm22.74 13.14l3.09 5.28h6.39l-3.81-6.15c1.95-1.02 3.15-2.94 3.15-5.55 0-4.26-2.88-6.72-6.93-6.72h-8.97V49.5h5.73v-5.28zm-1.35-8.31h2.46c1.5 0 2.07.75 2.07 1.89 0 1.11-.57 1.86-2.07 1.86h-2.46zm17.79-4.83L122.6 49.5h5.7l.96-2.67h6.48l.96 2.67h5.88l-6.96-18.42zm2.94 6.81l1.53 4.23h-3.06zm8.4-1.86h5.43V49.5h5.82V36.03h5.43v-4.95H140.9zm23.91-4.95h-5.82V49.5h5.82zm19.08 0h-5.61v8.58l-6.06-8.58h-5.43V49.5h5.61v-9.21l6.72 9.21h4.77zm11.28 13.53c-2.31 0-4.05-1.59-4.05-4.23 0-2.73 1.83-4.2 4.38-4.2 2.4 0 4.11.66 5.43 1.47v-5.52c-1.38-.81-3.42-1.35-5.43-1.35-6.18 0-10.2 3.75-10.2 9.6 0 5.52 3.75 9.42 9.66 9.42 2.67 0 5.01-.72 6.9-2.28v-8.61h-7.23v4.56h2.19v.81c-.39.21-.96.33-1.65.33z"/></svg>