<?xml version="1.0" encoding="utf-8"?>
<!-- Generator: Adobe Illustrator 24.0.3, SVG Export Plug-In . SVG Version: 6.00 Build 0)  -->
<svg version="1.1" id="Layer_1" xmlns="http://www.w3.org/2000/svg" xmlns:xlink="http://www.w3.org/1999/xlink" x="0px" y="0px"
	 viewBox="0 0 100 100" style="enable-background:new 0 0 100 100;" xml:space="preserve">
<style type="text/css">
	.st0{display:none;}
	.st1{display:inline;}
	.st2{fill-rule:evenodd;clip-rule:evenodd;fill:#00AEEF;}
	.st3{fill-rule:evenodd;clip-rule:evenodd;fill:#FDB913;}
	.st4{fill-rule:evenodd;clip-rule:evenodd;fill:#004563;}
	.st5{fill-rule:evenodd;clip-rule:evenodd;fill:#006F9A;}
</style>
<g id="Symbols" class="st0">
	<g id="Filter-Block-Mobile-6" transform="translate(-185.000000, -11.000000)" class="st1">
		<g id="Filter-Block-1" transform="translate(23.000000, 10.000000)">
			<g id="Change-in-Wealth-Key" transform="translate(1.000000, 1.000000)">
				<polygon id="Path-2" class="st2" points="261,100 211,0 161,100 				"/>
			</g>
		</g>
	</g>
</g>
<g id="Symbols_1_" class="st0">
	<g id="Filter-Block-Mobile-6_1_" transform="translate(-217.000000, -29.000000)" class="st1">
		<g id="Filter-Block-1_1_" transform="translate(23.000000, 10.000000)">
			<g id="Change-in-Wealth-Key_1_" transform="translate(1.000000, 1.000000)">
				<path id="Fill-1" class="st3" d="M293,76.06c0-22.88-21.88-41.41-49.06-41.86V18L195.9,55.09l48.04,0.16
					c13.34,0.47,24.04,9.53,24.04,20.81c0,11.59-11.2,20.97-25.02,20.97c-13.48,0-24.27-8.96-24.83-20.13H193
					c0.54,22.77,22.65,41.1,49.95,41.1C270.58,118,293,99.23,293,76.06"/>
			</g>
		</g>
	</g>
</g>
<g id="Symbols_2_" class="st0">
	<g id="Filter-Block-Mobile-6_2_" transform="translate(-227.000000, -12.000000)" class="st1">
		<g id="Filter-Block-1_2_" transform="translate(23.000000, 10.000000)">
			<g id="Change-in-Wealth-Key_2_" transform="translate(1.000000, 1.000000)">
				<polygon id="Path-2_1_" class="st4" points="203,1.11 253,101.11 303,1.11 				"/>
			</g>
		</g>
	</g>
</g>
<g id="Symbols_3_">
	<g id="Filter-Block-Mobile-6_3_" transform="translate(-24.000000, -29.000000)">
		<g id="Filter-Block-1_3_" transform="translate(23.000000, 10.000000)">
			<g id="Change-in-Wealth-Key_3_" transform="translate(1.000000, 1.000000)">
				<g id="Unchanged" transform="translate(0.000000, 18.000000)">
					<polygon id="Path-2_3_" class="st5" points="44.96,0 0,50 44.96,100 					"/>
					<polygon id="Path-2_2_" class="st5" points="55.04,100 100,50 55.04,0 					"/>
				</g>
			</g>
		</g>
	</g>
</g>
</svg>
